# xmcd
#
# Track frame offsets:
#	150
#	13312
#	28832
#	35860
#	45652
#	54807
#	64547
#	72330
#	82982
#	90732
#	101952
#	113332
#
# Disc length: 1735 seconds
#
# Revision: 1
# Processed by: cddbd v1.4PL0 Copyright (c) Steve Scherf et al.
# Submitted via: EasyCDDAExtractor 5.0.6
#
DISCID=9a06c50c
DTITLE=Radio Music Theatre - Funny Music
DYEAR=1990
DGENRE=Comedy
TTITLE0=My Mama's Coming Over
TTITLE1=I Don't Know What To Do, Diane
TTITLE2=Auto Love
TTITLE3=The Galleria Cowboy
TTITLE4=Used To Make Lots of Money
TTITLE5=Boomtown
TTITLE6=I Hate Rap Songs
TTITLE7=Well, I Remember...
TTITLE8=Paradise
TTITLE9=Turning
TTITLE10=Why Should I Apologize?
TTITLE11=There Will Be Another Night
EXTD=
EXTT0=
EXTT1=
EXTT2=
EXTT3=
EXTT4=
EXTT5=
EXTT6=
EXTT7=
EXTT8=
EXTT9=
EXTT10=
EXTT11=
PLAYORDER=
